<svg width="14" height="14" viewBox="0 0 14 14" fill="none" xmlns="http://www.w3.org/2000/svg">
<path d="M10.0617 14C9.60983 14 9.16173 13.9201 8.72357 13.7609C6.79324 13.0597 5.00147 11.9176 3.54192 10.4581C2.08237 8.99854 0.940273 7.20675 0.239072 5.27642C0.0137414 4.65607 -0.0527559 4.0157 0.0414941 3.37304C0.129783 2.77107 0.362961 2.18667 0.715845 1.68302C1.07029 1.17715 1.54282 0.756406 2.08235 0.466274C2.65769 0.156892 3.28567 0 3.94889 0C4.15516 0 4.33344 0.144123 4.37667 0.345802L5.06335 3.55033C5.09444 3.69544 5.04984 3.84642 4.94493 3.95137L3.77157 5.12469C4.87846 7.32539 6.67454 9.12147 8.87524 10.2284L10.0486 9.055C10.1535 8.95009 10.3045 8.90555 10.4496 8.93658L13.6541 9.62327C13.8558 9.66649 13.9999 9.84477 13.9999 10.051C13.9999 10.7143 13.843 11.3423 13.5336 11.9176C13.2435 12.4571 12.8227 12.9297 12.3169 13.2841C11.8133 13.637 11.2289 13.8702 10.6269 13.9585C10.4382 13.9862 10.2496 14 10.0617 14ZM3.59934 0.894104C2.72452 0.990678 1.94804 1.44921 1.43241 2.18514C0.852586 3.01267 0.717376 4.03049 1.06146 4.9777C2.40956 8.6888 5.31118 11.5904 9.02229 12.9385C9.96946 13.2826 10.9873 13.1474 11.8148 12.5676C12.5508 12.0519 13.0093 11.2755 13.1059 10.4006L10.499 9.84203L9.27362 11.0674C9.14322 11.1978 8.9451 11.2325 8.77825 11.154C6.17551 9.93128 4.06871 7.82448 2.84594 5.22173C2.76755 5.05486 2.80217 4.85673 2.93257 4.72636L4.15795 3.50098L3.59934 0.894104Z" fill="black"/>
</svg>
