<svg width="12" height="17" viewBox="0 0 12 17" fill="none" xmlns="http://www.w3.org/2000/svg">
<path d="M0.731218 15.8296L0.672502 3.64228C0.671878 3.51285 0.776309 3.4074 0.905745 3.40678C1.03518 3.40616 1.14062 3.51059 1.14125 3.64002L1.16142 7.82748L4.45454 7.81161C4.56457 7.03926 5.22842 6.44174 6.03131 6.43787C6.83421 6.434 7.50379 7.0251 7.62125 7.79635L10.9144 7.78049L10.8792 0.483698L9.2088 0.491746L9.21069 0.884366C9.21131 1.0138 9.10688 1.11924 8.97745 1.11987C8.84801 1.12049 8.74257 1.01606 8.74195 0.886625L8.74005 0.494004L7.55047 0.499735L7.55386 1.20285C7.55449 1.33229 7.45005 1.43773 7.32062 1.43835L4.6939 1.45101C4.56446 1.45163 4.45902 1.3472 4.4584 1.21777L4.45501 0.514648L3.26543 0.52038L3.27476 2.45786L8.74939 2.43148L8.74646 1.82411C8.74584 1.69468 8.85027 1.58924 8.97971 1.58861C9.10914 1.58799 9.21458 1.69242 9.21521 1.82186L9.21926 2.6636C9.21989 2.79303 9.11545 2.89847 8.98602 2.8991L7.47157 2.90639C7.21702 3.47478 6.65297 3.84785 6.01885 3.8509C5.38473 3.85396 4.81711 3.48631 4.5571 2.92043L3.04265 2.92773C2.91321 2.92835 2.80777 2.82392 2.80715 2.69449L2.79668 0.522638L1.12627 0.530686L1.13673 2.70254C1.13735 2.83197 1.03292 2.93741 0.903487 2.93804C0.774051 2.93866 0.668609 2.83423 0.667985 2.70479L0.656393 0.298572C0.655769 0.169136 0.7602 0.0636938 0.889636 0.0630702L11.1113 0.0138245C11.2408 0.0132009 11.3462 0.117632 11.3468 0.247068L11.4055 12.4344C11.4062 12.5639 11.3017 12.6693 11.1723 12.6699C11.0429 12.6706 10.9374 12.5661 10.9368 12.4367L10.9166 8.24923L7.62351 8.2651C7.51348 9.03745 6.84963 9.63497 6.04674 9.63884C5.24384 9.6427 4.57426 9.05161 4.4568 8.28035L1.16368 8.29622L1.19883 15.593L2.86925 15.585L2.86692 15.1C2.86629 14.9706 2.97072 14.8652 3.10016 14.8645C3.22959 14.8639 3.33504 14.9683 3.33566 15.0978L3.338 15.5827L4.52758 15.577L4.52419 14.8739C4.52356 14.7444 4.628 14.639 4.75743 14.6384L7.38415 14.6257C7.51359 14.6251 7.61903 14.7295 7.61965 14.8589L7.62304 15.5621L8.81262 15.5563L8.80329 13.6189L3.32866 13.6452L3.33114 14.1603C3.33177 14.2897 3.22734 14.3952 3.0979 14.3958C2.96846 14.3964 2.86302 14.292 2.8624 14.1625L2.85879 13.4131C2.85816 13.2837 2.9626 13.1782 3.09203 13.1776L4.60648 13.1703C4.86103 12.602 5.42508 12.2289 6.0592 12.2258C6.69332 12.2228 7.26094 12.5904 7.52095 13.1563L9.0354 13.149C9.16484 13.1484 9.27028 13.2528 9.2709 13.3822L9.28137 15.5541L10.9518 15.546L10.9413 13.3742C10.9407 13.2447 11.0451 13.1393 11.1746 13.1387C11.304 13.138 11.4094 13.2425 11.4101 13.3719L11.4217 15.7781C11.4223 15.9076 11.3179 16.013 11.1884 16.0136L0.966719 16.0629C0.837283 16.0635 0.731841 15.9591 0.731218 15.8296ZM7.14749 8.26739L4.93282 8.27806C5.04351 8.7895 5.50076 9.17271 6.04448 9.17009C6.58819 9.16747 7.04173 8.77988 7.14749 8.26739ZM7.14523 7.79865C7.03454 7.28721 6.57729 6.904 6.03357 6.90662C5.48986 6.90924 5.03632 7.29683 4.93056 7.80932L7.14523 7.79865ZM4.99406 15.106L4.99632 15.5747L7.1543 15.5643L7.15204 15.0956L4.99406 15.106ZM4.92375 0.51239L4.92601 0.981135L7.08399 0.970738L7.08173 0.501994L4.92375 0.51239ZM6.98174 13.1589C6.77172 12.8706 6.4327 12.6928 6.06146 12.6946C5.69018 12.6963 5.35292 12.8774 5.14566 13.1677L6.98174 13.1589ZM6.93236 2.90899L5.09628 2.91784C5.30633 3.20614 5.64532 3.38395 6.01659 3.38216C6.38784 3.38037 6.72513 3.19927 6.93236 2.90899Z" fill="black"/>
</svg>
