<svg width="35" height="30" viewBox="0 0 35 30" fill="none" xmlns="http://www.w3.org/2000/svg">
<path d="M17.5019 27.362C27.1671 27.362 35 21.2385 35 13.6808C35 6.123 27.1671 0 17.5019 0C7.83681 0 0.00389689 6.12343 0.00389689 13.6808C0.00389689 16.6471 1.21357 19.3899 3.26411 21.633C3.13417 23.2446 2.48493 24.6785 1.80156 25.7702C1.42576 26.3751 1.04295 26.8618 0.762513 27.191C0.619015 27.3556 0.509641 27.4803 0.427392 27.5661C0.386267 27.6057 0.359143 27.6386 0.33858 27.6583L0.318018 27.6781C0.00345916 27.9808 -0.0853524 28.4279 0.0857082 28.8224C0.256769 29.2169 0.653139 29.4737 1.0972 29.4737C3.05892 29.4737 5.03421 28.8885 6.67482 28.2044C8.24018 27.5468 9.57279 26.7637 10.3865 26.1916C12.56 26.9481 14.9662 27.3691 17.5019 27.3691V27.3624V27.362ZM8.75292 15.7858C7.54325 15.7858 6.56588 14.8453 6.56588 13.6812C6.56588 12.5171 7.54325 11.5766 8.75292 11.5766C9.9626 11.5766 10.94 12.5171 10.94 13.6812C10.94 14.8453 9.9626 15.7858 8.75292 15.7858ZM17.5019 15.7858C16.2923 15.7858 15.3149 14.8453 15.3149 13.6812C15.3149 12.5171 16.2923 11.5766 17.5019 11.5766C18.7116 11.5766 19.689 12.5171 19.689 13.6812C19.689 14.8453 18.7116 15.7858 17.5019 15.7858ZM28.438 13.6812C28.438 14.8453 27.4606 15.7858 26.251 15.7858C25.0413 15.7858 24.0639 14.8453 24.0639 13.6812C24.0639 12.5171 25.0413 11.5766 26.251 11.5766C27.4606 11.5766 28.438 12.5171 28.438 13.6812Z" fill="white"/>
</svg>
