<svg width="6" height="9" viewBox="0 0 6 9" fill="none" xmlns="http://www.w3.org/2000/svg">
<path d="M2.33 8.04C2.17 8.04 2 8.02667 1.82 8C1.64 7.96667 1.47 7.90333 1.31 7.81C1.15 7.71667 1.02 7.57667 0.92 7.39C0.82 7.19667 0.77 6.93667 0.77 6.61V2.12C0.77 1.83333 0.81 1.59667 0.89 1.41C0.976667 1.21667 1.09 1.06667 1.23 0.959999C1.37 0.846666 1.52667 0.766666 1.7 0.72C1.87333 0.666666 2.04667 0.639999 2.22 0.639999C2.63333 0.646666 3.01667 0.656666 3.37 0.67C3.72333 0.676666 4.05667 0.686666 4.37 0.7C4.69 0.706666 5 0.716666 5.3 0.729999V1.37H2.42C2.16 1.37 1.95333 1.44 1.8 1.58C1.64667 1.72 1.57 1.94333 1.57 2.25V3.99L4.86 4.04V4.65L1.57 4.7V6.43C1.57 6.67667 1.61 6.86333 1.69 6.99C1.77667 7.11667 1.89 7.2 2.03 7.24C2.17 7.28 2.31333 7.3 2.46 7.3H5.3V7.94C4.99333 7.96 4.67 7.97667 4.33 7.99C3.99667 8.00333 3.66 8.01333 3.32 8.02C2.98667 8.02667 2.65667 8.03333 2.33 8.04Z" fill="black"/>
</svg>
