<svg width="30" height="28" viewBox="0 0 30 28" fill="none" xmlns="http://www.w3.org/2000/svg">
<path d="M29.9921 13.9727C29.9921 14.957 29.2108 15.7281 28.3253 15.7281H26.6585L26.6948 24.489C26.6948 24.6366 26.6843 24.7845 26.669 24.932V25.8125C26.669 27.0211 25.7366 28 24.5854 28H23.752C23.6947 28 23.6373 28 23.58 27.9945C23.5069 28 23.4342 28 23.3611 28H20.4183C19.2671 28 18.3348 27.0211 18.3348 25.8125V21.0001C18.3348 20.0323 17.5898 19.2501 16.6679 19.2501H13.3343C12.4124 19.2501 11.6674 20.0323 11.6674 21.0001V25.8125C11.6674 27.0211 10.7351 28 9.5839 28H6.67219C6.59426 28 6.51592 27.9945 6.43799 27.989C6.3754 27.9945 6.31282 28 6.25063 28H5.41721C4.26602 28 3.33367 27.0211 3.33367 25.8125V19.6876C3.33367 19.6385 3.33367 19.5838 3.33892 19.5346V15.7286H1.66684C0.72924 15.7286 0 14.963 0 13.9731C0 13.4809 0.156266 13.0434 0.520886 12.6606L13.8762 0.437493C14.2408 0.0546865 14.6575 0 15.0221 0C15.3867 0 15.8034 0.109373 16.116 0.382807L29.4192 12.6598C29.8359 13.0426 30.0442 13.4805 29.9921 13.9727Z" fill="white"/>
</svg>
