<svg width="14" height="14" viewBox="0 0 14 14" fill="none" xmlns="http://www.w3.org/2000/svg">
<path d="M7 0C3.14038 0 0 3.14038 0 7C0 8.34575 0.377125 9.63813 1.092 10.752L0.0315 13.3997C-0.03325 13.5625 0.004375 13.748 0.128625 13.8722C0.21175 13.9554 0.32375 14 0.4375 14C0.492625 14 0.546875 13.9895 0.60025 13.9685L3.248 12.908C4.36188 13.6229 5.65425 14 7 14C10.8596 14 14 10.8596 14 7C14 3.14038 10.8596 0 7 0ZM7 13.125C5.75225 13.125 4.55787 12.7558 3.54725 12.0566C3.47375 12.005 3.38625 11.9787 3.29875 11.9787C3.24362 11.9787 3.1885 11.9893 3.136 12.0103L1.22325 12.7768L1.98975 10.864C2.044 10.7275 2.0265 10.5726 1.94337 10.4528C1.24425 9.44213 0.875 8.24775 0.875 7C0.875 3.6225 3.6225 0.875 7 0.875C10.3775 0.875 13.125 3.6225 13.125 7C13.125 10.3775 10.3775 13.125 7 13.125Z" fill="black"/>
</svg>
