    <svg
      width="26"
      height="30"
      viewBox="0 0 26 30"
      fill="none"
      xmlns="http://www.w3.org/2000/svg"
    >
      <path
        d="M20.9524 23.7273H20.1667V12.1364C20.1667 7.32614 16.7521 3.35114 12.3095 2.68977V1.36364C12.3095 0.610227 11.7235 0 11 0C10.2765 0 9.69048 0.610227 9.69048 1.36364V2.68977C5.24792 3.35114 1.83333 7.32614 1.83333 12.1364V23.7273H1.04762C0.468155 23.7273 0 24.2148 0 24.8182V25.9091C0 26.0591 0.117857 26.1818 0.261905 26.1818H7.33333C7.33333 28.2886 8.97679 30 11 30C13.0232 30 14.6667 28.2886 14.6667 26.1818H21.7381C21.8821 26.1818 22 26.0591 22 25.9091V24.8182C22 24.2148 21.5318 23.7273 20.9524 23.7273ZM11 27.8182C10.1324 27.8182 9.42857 27.0852 9.42857 26.1818H12.5714C12.5714 27.0852 11.8676 27.8182 11 27.8182ZM4.19048 23.7273V12.1364C4.19048 10.2409 4.89762 8.46136 6.18423 7.12159C7.47083 5.78182 9.17976 5.04545 11 5.04545C12.8202 5.04545 14.5292 5.78182 15.8158 7.12159C17.1024 8.46136 17.8095 10.2409 17.8095 12.1364V23.7273H4.19048Z"
        fill="#969696"
      />
      <circle
        cx="19.4951"
        cy="7.49509"
        r="5.49509"
        fill="#FF3300"
        stroke="#969696"
      />
    </svg>

