<svg width="17" height="15" viewBox="0 0 17 15" fill="none" xmlns="http://www.w3.org/2000/svg">
<path d="M16.5476 5.6959C16.4906 5.52908 16.3386 5.40755 16.1558 5.38237L11.0186 4.67397L8.72109 0.256781C8.6393 0.0995063 8.47054 0 8.28573 0C8.10095 0 7.93217 0.0995063 7.85038 0.256781L5.55278 4.67394L0.415673 5.38237C0.232838 5.40755 0.0808468 5.52908 0.0237855 5.69584C-0.0333406 5.86267 0.0143022 6.04574 0.146615 6.1681L3.86379 9.60644L2.98641 14.4614C2.95518 14.6343 3.03007 14.8089 3.17957 14.912C3.32907 15.0151 3.52721 15.0287 3.69086 14.9471L8.2857 12.6548L12.8804 14.947C12.9515 14.9825 13.029 15 13.1063 15C13.207 15 13.3072 14.9703 13.3917 14.912C13.5412 14.8089 13.6161 14.6342 13.5849 14.4614L12.7072 9.60644L16.4248 6.1681C16.5571 6.04571 16.6048 5.86264 16.5476 5.6959Z" fill="#FED42D"/>
<path d="M16.5483 5.69591C16.4932 5.52908 16.3465 5.40756 16.1699 5.38237L11.2099 4.67397L8.99163 0.256782C8.91266 0.0995064 8.74973 0 8.57129 0V12.6548L13.0076 14.9471C13.0762 14.9825 13.151 15 13.2257 15C13.3229 15 13.4196 14.9704 13.5012 14.9121C13.6456 14.809 13.7179 14.6343 13.6877 14.4615L12.8403 9.60645L16.4297 6.1681C16.5575 6.04572 16.6035 5.86264 16.5483 5.69591Z" fill="#FCBF29"/>
</svg>
