<svg width="16" height="16" viewBox="0 0 16 16" fill="none" xmlns="http://www.w3.org/2000/svg">
<path fill-rule="evenodd" clip-rule="evenodd" d="M7.9629 0C7.23593 0 6.02116 0.265 4.87804 0.56C3.70857 0.86 2.52963 1.215 1.83638 1.43C1.54653 1.52085 1.28957 1.68747 1.095 1.9107C0.900431 2.13394 0.776156 2.40474 0.73645 2.692C0.108521 7.169 1.56561 10.487 3.3335 12.682C4.08321 13.621 4.9771 14.4478 5.98534 15.135C6.39202 15.408 6.7692 15.617 7.08949 15.76C7.38449 15.892 7.70161 16 7.9629 16C8.22418 16 8.54025 15.892 8.83631 15.76C9.22242 15.5819 9.59181 15.3728 9.94045 15.135C10.9487 14.4479 11.8426 13.621 12.5923 12.682C14.3602 10.487 15.8173 7.169 15.1893 2.692C15.1497 2.4046 15.0255 2.13364 14.8309 1.91023C14.6363 1.68683 14.3793 1.52003 14.0894 1.429C13.0831 1.11581 12.0689 0.825729 11.0478 0.559C9.90463 0.266 8.68986 0 7.9629 0ZM7.9629 5C8.33611 4.99947 8.69748 5.12433 8.983 5.35246C9.26852 5.58059 9.45977 5.89727 9.52286 6.24641C9.58596 6.59555 9.51683 6.95462 9.32773 7.26002C9.13863 7.56542 8.84175 7.79745 8.48968 7.915L8.89531 9.905C8.91006 9.97738 8.90778 10.052 8.88861 10.1234C8.86944 10.1948 8.83386 10.2614 8.78442 10.3182C8.73499 10.3751 8.67292 10.4209 8.60265 10.4523C8.53239 10.4837 8.45568 10.5 8.378 10.5H7.54779C7.47021 10.4999 7.39361 10.4835 7.32348 10.452C7.25335 10.4205 7.19141 10.3747 7.14209 10.3179C7.09277 10.261 7.05728 10.1945 7.03817 10.1232C7.01906 10.0518 7.0168 9.9773 7.03154 9.905L7.43611 7.915C7.08404 7.79745 6.78717 7.56542 6.59806 7.26002C6.40896 6.95462 6.33984 6.59555 6.40293 6.24641C6.46603 5.89727 6.65727 5.58059 6.94279 5.35246C7.22831 5.12433 7.58968 4.99947 7.9629 5Z" fill="#999999"/>
</svg>
