<svg width="25" height="28" viewBox="0 0 25 28" fill="none" xmlns="http://www.w3.org/2000/svg">
<path d="M7.14286 0C8.13043 0 8.92857 0.782184 8.92857 1.75002V3.50004H16.0714V1.75002C16.0714 0.782184 16.8696 0 17.8571 0C18.8447 0 19.6429 0.782184 19.6429 1.75002V3.50004H22.3213C23.8001 3.50004 24.9997 4.67595 24.9997 6.12491V8.74977H0V6.12491C0 4.67562 1.1999 3.50004 2.6784 3.50004H5.35681V1.75002C5.35681 0.782184 6.15494 0 7.14252 0H7.14286ZM0 10.5001H25V25.3751C25 26.8244 23.8001 28 22.3216 28H2.67874C1.1999 28 0.000336619 26.8241 0.000336619 25.3751V10.5001H0ZM3.57143 14.875V16.625C3.57143 17.1061 3.97319 17.4999 4.46412 17.4999H6.24983C6.74076 17.4999 7.14252 17.1061 7.14252 16.625V14.875C7.14252 14.3939 6.74076 14.0002 6.24983 14.0002H4.46412C3.97319 14.0002 3.57143 14.3939 3.57143 14.875ZM10.7143 14.875V16.625C10.7143 17.1061 11.116 17.4999 11.607 17.4999H13.3927C13.8836 17.4999 14.2854 17.1061 14.2854 16.625V14.875C14.2854 14.3939 13.8836 14.0002 13.3927 14.0002H11.607C11.116 14.0002 10.7143 14.3939 10.7143 14.875ZM18.7498 14.0002C18.2589 14.0002 17.8571 14.3939 17.8571 14.875V16.625C17.8571 17.1061 18.2589 17.4999 18.7498 17.4999H20.5355C21.0265 17.4999 21.4282 17.1061 21.4282 16.625V14.875C21.4282 14.3939 21.0265 14.0002 20.5355 14.0002H18.7498ZM3.57143 21.8751V23.6251C3.57143 24.1062 3.97319 24.5 4.46412 24.5H6.24983C6.74076 24.5 7.14252 24.1062 7.14252 23.6251V21.8751C7.14252 21.394 6.74076 21.0002 6.24983 21.0002H4.46412C3.97319 21.0002 3.57143 21.394 3.57143 21.8751ZM11.607 21.0002C11.116 21.0002 10.7143 21.394 10.7143 21.8751V23.6251C10.7143 24.1062 11.116 24.5 11.607 24.5H13.3927C13.8836 24.5 14.2854 24.1062 14.2854 23.6251V21.8751C14.2854 21.394 13.8836 21.0002 13.3927 21.0002H11.607ZM17.8568 21.8751V23.6251C17.8568 24.1062 18.2586 24.5 18.7495 24.5H20.5352C21.0261 24.5 21.4279 24.1062 21.4279 23.6251V21.8751C21.4279 21.394 21.0261 21.0002 20.5352 21.0002H18.7495C18.2586 21.0002 17.8568 21.394 17.8568 21.8751Z" fill="white"/>
</svg>
