<svg width="17" height="16" viewBox="0 0 17 16" fill="none" xmlns="http://www.w3.org/2000/svg">
<path fill-rule="evenodd" clip-rule="evenodd" d="M8.42931 0.666992C4.16235 0.666992 0.703125 3.95033 0.703125 8.00033C0.703125 12.0503 4.16235 15.3337 8.42931 15.3337C12.6963 15.3337 16.1555 12.0503 16.1555 8.00033C16.1555 3.95033 12.6963 0.666992 8.42931 0.666992ZM11.7783 6.76033C11.8399 6.69342 11.8869 6.61548 11.9163 6.5311C11.9458 6.44672 11.9572 6.3576 11.9498 6.26898C11.9425 6.18036 11.9165 6.09403 11.8735 6.01508C11.8305 5.93612 11.7712 5.86613 11.6993 5.80922C11.6273 5.75231 11.5441 5.70963 11.4545 5.6837C11.365 5.65777 11.2708 5.6491 11.1776 5.65821C11.0845 5.66732 10.9942 5.69402 10.9121 5.73675C10.8299 5.77947 10.7576 5.83735 10.6994 5.90699L7.67917 9.34632L6.11637 7.86233C5.9839 7.74089 5.80648 7.67369 5.62232 7.67521C5.43816 7.67673 5.26199 7.74684 5.13176 7.87045C5.00154 7.99405 4.92767 8.16126 4.92607 8.33606C4.92447 8.51086 4.99526 8.67926 5.12321 8.80499L7.23035 10.805C7.29936 10.8705 7.38199 10.9216 7.47296 10.955C7.56394 10.9885 7.66126 11.0036 7.75873 10.9994C7.8562 10.9952 7.95168 10.9718 8.03908 10.9306C8.12648 10.8895 8.20389 10.8315 8.26636 10.7603L11.7783 6.76033Z" fill="#FF7553"/>
</svg>
