<svg width="29" height="30" viewBox="0 0 29 30" fill="none" xmlns="http://www.w3.org/2000/svg">
<path d="M28.9195 9.76362C29.112 10.2733 28.9496 10.842 28.5351 11.2051L25.9332 13.5141C25.9992 14.0006 26.0355 14.4989 26.0355 15.0029C26.0355 15.5068 25.9996 16.0051 25.9332 16.4916L28.5351 18.8006C28.9496 19.1641 29.112 19.7324 28.9195 20.2421C28.6553 20.9394 28.3368 21.6075 27.9699 22.2523L27.6873 22.727C27.2908 23.3718 26.8462 23.9812 26.3591 24.5556C26.0047 24.9777 25.4157 25.1182 24.8868 24.9541L21.5394 23.9169C20.7342 24.5206 19.8446 25.0246 18.8954 25.4056L18.1444 28.7519C18.0242 29.2851 17.6034 29.7073 17.0507 29.7948C16.2213 29.9296 15.3681 30 14.4969 30C13.6257 30 12.7721 29.9296 11.943 29.7948C11.3903 29.7069 10.9696 29.2851 10.8493 28.7519L10.0984 25.4056C9.14873 25.0246 8.25958 24.5206 7.45435 23.9169L4.11322 24.9598C3.58434 25.1239 2.99535 24.9774 2.64094 24.5613C2.15421 23.9869 1.70964 23.3775 1.31269 22.7327L1.0301 22.258C0.663587 21.6132 0.345087 20.9451 0.0804508 20.2478C-0.111976 19.7381 0.0503961 19.1694 0.464915 18.8063L3.06678 16.4973C3.00082 16.0051 2.96452 15.5068 2.96452 15.0029C2.96452 14.4989 3.00043 14.0006 3.06678 13.5141L0.464915 11.2051C0.0503961 10.8416 -0.111976 10.2733 0.0804508 9.76362C0.344697 9.06627 0.663197 8.39823 1.0301 7.75342L1.31269 7.27875C1.70925 6.63393 2.15382 6.02451 2.64094 5.45012C2.99535 5.02798 3.58434 4.88752 4.11322 5.05158L7.4606 6.08884C8.26583 5.48514 9.15536 4.98116 10.1046 4.60013L10.8556 1.25385C10.9758 0.720566 11.3966 0.298428 11.9493 0.210879C12.7787 0.0700392 13.6319 0 14.5031 0C15.3743 0 16.2279 0.07042 17.057 0.205169C17.6097 0.293099 18.0304 0.714857 18.1507 1.24814L18.9016 4.59442C19.8513 4.97545 20.7404 5.47943 21.5456 6.08313L24.893 5.04587C25.4219 4.88181 26.0109 5.02836 26.3653 5.44441C26.852 6.0188 27.2966 6.62822 27.6936 7.27304L27.9761 7.74771C28.3427 8.39252 28.6612 9.06056 28.9258 9.75791L28.9199 9.76362H28.9195ZM14.5031 19.6913C17.1592 19.6913 19.3107 17.5932 19.3107 15.0029C19.3107 12.4125 17.1592 10.3144 14.5031 10.3144C11.847 10.3144 9.69557 12.4125 9.69557 15.0029C9.69557 17.5932 11.847 19.6913 14.5031 19.6913Z" fill="white"/>
</svg>
