<svg width="35" height="27" viewBox="0 0 35 27" fill="none" xmlns="http://www.w3.org/2000/svg">
<path d="M35 5.8116C34.7849 6.06636 34.5883 6.33649 34.4117 6.6199C32.4468 10.1804 30.4619 13.7288 28.5571 17.3217C27.7567 18.8493 26.5561 19.4757 24.9074 19.4636C20.9936 19.4394 17.0798 19.4636 13.166 19.4636C12.9277 19.4285 12.6847 19.4782 12.4788 19.6043C12.2728 19.7304 12.1168 19.925 12.0375 20.1547C11.7614 20.8013 11.3892 21.4035 11.0691 22.0299C10.6689 22.7938 10.8049 23.008 11.6653 23.008C15.7339 23.008 19.8024 23.008 23.8709 23.008H31.4264V26.4836H10.873C7.67152 26.4836 6.02275 23.5334 7.62348 20.7407C8.25977 19.6334 8.91609 18.5381 9.51636 17.4106C9.58773 17.2715 9.63085 17.1194 9.64322 16.9632C9.65559 16.8071 9.63696 16.65 9.58839 16.5012C7.65951 12.3385 5.69461 8.19202 3.76173 4.03337C3.69902 3.85215 3.5765 3.69822 3.41474 3.59741C3.25298 3.4966 3.06182 3.45503 2.87331 3.47969C1.91687 3.47969 0.956437 3.45544 0 3.43927V0H5.75463C6.17482 0.925492 6.63104 1.83482 6.99121 2.78456C7.06082 3.04173 7.22158 3.26411 7.44293 3.40941C7.66427 3.55471 7.93077 3.6128 8.19176 3.57264C16.3955 3.57264 24.5993 3.57264 32.807 3.54435C33.8515 3.54435 34.6198 3.82725 34.996 4.86995L35 5.8116Z" fill="#B2B2B2"/>
</svg>
