<svg width="7" height="9" viewBox="0 0 7 9" fill="none" xmlns="http://www.w3.org/2000/svg">
<path d="M6.16407 1.66293C5.61786 0.825055 4.64769 0.313164 3.56883 0.293602C3.52278 0.292758 3.47643 0.292758 3.43035 0.293602C2.35151 0.313164 1.38134 0.825055 0.835118 1.66293C0.276802 2.51937 0.261527 3.54812 0.794249 4.41485L3.02602 8.0459C3.02702 8.04751 3.02802 8.04912 3.02906 8.05071C3.12725 8.20241 3.30316 8.29298 3.49963 8.29298C3.69608 8.29298 3.87199 8.2024 3.97016 8.05071C3.9712 8.04912 3.9722 8.04751 3.9732 8.0459L6.20497 4.41485C6.73766 3.54812 6.72238 2.51937 6.16407 1.66293ZM3.49959 3.91798C2.80172 3.91798 2.23397 3.41331 2.23397 2.79298C2.23397 2.17265 2.80172 1.66798 3.49959 1.66798C4.19746 1.66798 4.76522 2.17265 4.76522 2.79298C4.76522 3.41331 4.19748 3.91798 3.49959 3.91798Z" fill="#FF3300"/>
</svg>
