<svg width="10" height="10" viewBox="0 0 10 10" fill="none" xmlns="http://www.w3.org/2000/svg">
<path d="M9.9996 5.00001L8.86755 3.67888L9.0448 1.91021L7.38944 1.54187L6.54505 0L4.99961 0.726021L4.79102 5.00001L4.99961 9.27398L6.54507 10L7.38944 8.45815L9.0448 8.08979L8.86755 6.32112L9.9996 5.00001Z" fill="#45FF9A"/>
<path d="M3.45453 0L2.61016 1.54187L0.954798 1.91023L1.13205 3.67888L0 5.00001L1.13205 6.32112L0.954798 8.08979L2.61016 8.45815L3.45455 10L5.00001 9.27398V0.726021L3.45453 0Z" fill="#45FF9A"/>
<path d="M7.09572 3.8491L6.65806 3.43848L4.99961 5.39153L4.79102 5.87689L4.99961 6.31757L7.09572 3.8491Z" fill="white"/>
<path d="M3.2566 4.53516L2.8418 4.97119L4.58582 6.8044L4.99951 6.31723V5.39119L4.56161 5.90687L3.2566 4.53516Z" fill="#FFFBF5"/>
</svg>
