<svg width="16" height="14" viewBox="0 0 16 14" fill="none" xmlns="http://www.w3.org/2000/svg">
<path d="M0 3.17478L0.340753 3.57006C4.75342 -0.193484 11.2466 -0.193484 15.6592 3.57006L16 3.17478C11.391 -0.756176 4.609 -0.756176 0 3.17478Z" fill="black"/>
<path d="M1.91113 6.38133L2.28006 6.75027C5.44074 3.59657 10.5578 3.59657 13.7185 6.75027L14.0874 6.38133C10.723 3.02393 5.27561 3.02393 1.91113 6.38133Z" fill="black"/>
<path d="M4.49414 8.96422L4.86307 9.33315C6.59645 7.6038 9.40258 7.6038 11.136 9.33315L11.5049 8.96422C9.5676 7.03146 6.43142 7.03146 4.49414 8.96422Z" fill="black"/>
<path d="M8.92247 11.5474C8.41252 11.0389 7.58725 11.0389 7.0773 11.5474C6.5679 12.0569 6.56799 12.8829 7.07753 13.3923C7.58706 13.9017 8.41307 13.9016 8.92247 13.3921C9.43178 12.8826 9.43178 12.0568 8.92247 11.5474ZM8.55354 13.0236C8.24775 13.3292 7.75215 13.3291 7.44659 13.0233C7.14099 12.7175 7.14116 12.2219 7.44695 11.9163C7.75257 11.6109 8.24792 11.6109 8.55354 11.9163C8.85858 12.2224 8.85858 12.7175 8.55354 13.0236Z" fill="black"/>
</svg>
